<svg  viewBox="0 0 800 322" fill="none" xmlns="http://www.w3.org/2000/svg">
<path d="M783.666 12.8592C780.153 4.19044 771.287 -0.590816 762.134 1.24668C752.923 3.08262 746.55 10.9311 746.633 20.317L746.634 20.5467C746.634 68.5154 707.608 107.54 659.638 107.54C630.475 107.54 603.391 93.0311 587.191 68.7264C587.13 68.6358 587.069 68.5451 587.003 68.4561L583.434 63.367C583.352 63.2483 583.266 63.1295 583.178 63.0154C558.866 30.5686 520.15 12.0061 479.608 13.4342C450.017 14.4576 421.736 26.3186 399.998 46.4608C378.261 26.3186 349.98 14.4576 320.389 13.4342C279.881 12.0045 241.131 30.5686 216.819 63.0154C216.731 63.1326 216.647 63.2483 216.563 63.367L212.994 68.4561C212.931 68.5467 212.87 68.6373 212.806 68.7264C196.606 93.0311 169.523 107.54 140.359 107.54C92.3906 107.54 53.3625 68.5154 53.3625 20.5467V20.3279C53.4484 10.9326 47.0734 3.0842 37.8625 1.24513C28.6969 -0.589241 19.8438 4.19044 16.3312 12.8545C5.49687 39.5982 0 67.9092 0 97.0045C0 157.108 23.8391 213.695 67.1266 256.344C110.436 299.011 167.405 321.972 227.541 321.117C295.255 320.108 358.372 288.614 399.998 235.937C441.625 288.614 504.744 320.108 572.456 321.117C573.588 321.134 574.713 321.144 575.842 321.144C634.73 321.144 690.378 298.209 732.872 256.344C776.159 213.695 800 157.106 800 97.0045C800 67.9092 794.505 39.5983 783.666 12.8592ZM713.383 236.561C675.414 273.965 625.47 294.079 572.87 293.351C507.736 292.381 447.448 259.203 411.606 204.601C409.041 200.694 404.677 198.336 399.998 198.336C395.32 198.336 390.958 200.69 388.391 204.601C352.547 259.2 292.259 292.379 227.127 293.351C174.467 294.075 124.584 273.967 86.6141 236.561C48.6687 199.175 27.7703 149.611 27.7703 97.0045C27.7703 83.6326 29.0937 70.4545 31.7187 57.5639C47.1531 102.737 90.0266 135.311 140.361 135.311C178.773 135.311 214.445 116.234 235.82 84.2764L239.172 79.4983C258.048 54.4201 288.042 40.0904 319.433 41.1858C346.288 42.1154 371.784 54.617 389.389 75.4842C392.027 78.6108 395.911 80.417 400.003 80.417C404.095 80.417 407.978 78.6123 410.617 75.4842C428.22 54.617 453.719 42.1154 480.572 41.1858C512.008 40.1233 541.955 54.4217 560.833 79.4983L564.184 84.2764C585.558 116.237 621.231 135.311 659.644 135.311C709.98 135.311 752.85 102.737 768.286 57.5639C770.911 70.4514 772.234 83.6311 772.234 97.0045C772.23 149.611 751.331 199.175 713.383 236.561Z" fill="#FF8A00"/>
</svg>
