<svg viewBox="0 0 800 692" fill="none" xmlns="http://www.w3.org/2000/svg">
<path d="M794.955 607.283C788.873 602.044 779.694 602.723 774.45 608.805L773.306 610.133C754.845 631.542 726.5 640.02 700.116 633.334C711.455 614.586 717.575 592.978 717.575 570.806C717.575 504.183 663.372 449.983 596.752 449.983C555.445 449.983 518.928 470.83 497.13 502.542L370.2 380.337C364.717 375.058 356.091 374.901 350.42 379.977L324.684 403.012L55.0172 30.1015C54.9609 30.0218 54.9141 29.9515 54.8781 29.8937C54.9859 29.7671 55.1359 29.6406 55.275 29.5499C55.3281 29.5952 55.3906 29.6515 55.4609 29.7203L478.784 443.642C484.528 449.253 493.731 449.145 499.342 443.401C504.953 437.658 504.845 428.455 499.102 422.844L449.427 373.966L686.103 47.1562C695.27 34.4984 693.334 17.9046 681.503 7.69525C669.672 -2.51569 652.97 -1.99694 641.794 8.92337L358.787 285.414L75.7781 8.92181C64.6 -2.00163 47.9 -2.51725 36.0687 7.69212C24.2375 17.9015 22.3031 34.4984 31.4625 47.1453L267.945 374.166L176.422 463.583C159.767 454.911 140.869 449.98 120.828 449.98C54.2031 449.98 0 504.18 0 570.805C0 599.719 10.3766 627.7 29.2156 649.587C52.2109 676.306 85.6 691.631 120.827 691.631C187.45 691.631 241.65 637.428 241.65 570.808C241.65 556.305 239.078 542.394 234.372 529.497L290.984 474.994C296.769 469.425 296.942 460.222 291.373 454.439C285.805 448.655 276.602 448.481 270.819 454.05L220.448 502.544C214.833 494.375 208.237 486.936 200.837 480.383L285.17 397.992L310.578 433.126C312.991 436.464 316.708 438.62 320.802 439.062C324.889 439.503 328.986 438.186 332.053 435.439L359.755 410.644L483.203 529.497C478.497 542.391 475.925 556.305 475.925 570.808C475.925 637.431 530.128 691.631 596.748 691.631C628.28 691.631 658.317 679.322 680.767 657.584C692.884 662.339 705.513 664.689 718.041 664.689C746.966 664.689 775.306 652.337 795.33 629.119L796.475 627.789C801.716 621.703 801.034 612.523 794.955 607.283ZM662.114 29.7187C662.184 29.6515 662.245 29.5952 662.3 29.5499C662.439 29.6374 662.589 29.7671 662.697 29.8906C662.659 29.9499 662.616 30.0203 662.558 30.0999L428.403 353.428L379.591 305.739L662.114 29.7187ZM212.573 570.805C212.573 621.395 171.416 662.553 120.825 662.553C94.0781 662.553 68.7172 650.912 51.2516 630.619C36.9516 614.005 29.0766 592.762 29.0766 570.805C29.0766 520.214 70.2359 479.056 120.825 479.056C171.414 479.055 212.573 520.212 212.573 570.805ZM666.32 630.619C648.853 650.914 623.495 662.553 596.747 662.553C546.159 662.553 505 621.395 505 570.805C505 520.214 546.159 479.056 596.748 479.056C647.338 479.056 688.497 520.214 688.497 570.805C688.497 592.759 680.622 614.005 666.32 630.619Z" fill="#FF8A00"/>
</svg>
