<svg  viewBox="0 0 800 588" fill="none" xmlns="http://www.w3.org/2000/svg">
<path d="M750.367 70.6251H720.767C729.034 58.7251 740.134 41.1579 747.467 29.4579C750.267 24.9251 750.767 19.3251 748.767 14.3907C746.767 9.4579 742.534 5.75789 737.367 4.4907C691.567 -6.97649 641.467 7.8907 609.534 42.2907C603.734 48.5579 594.502 58.3579 582.702 70.6579H116.667C52.3328 70.6595 0 122.992 0 187.325C0 196.525 7.46719 203.992 16.6672 203.992H416.667C425.867 203.992 433.2 197.059 433.2 187.892C433.433 187.425 438.833 178.925 480.3 172.792C385.967 262.959 257.2 375.259 140.567 439.825C119.967 451.225 105.667 471.025 101.367 494.058C97.0344 517.125 103.2 540.725 118.334 558.925C133.402 576.992 155.434 587.325 178.834 587.325C192.434 587.325 205.902 583.725 217.734 576.925C319.302 518.492 513.234 363.058 655.667 167.358C673.234 167.758 690.2 168.258 705.534 168.725C722.302 169.258 737.334 169.692 749.534 169.925H750.367C763.6 169.925 776.067 164.792 785.434 155.425C794.834 146.058 800.002 133.592 800.002 120.292C800 92.8923 777.733 70.6251 750.367 70.6251ZM233.333 487.292C224.133 487.292 216.666 479.825 216.666 470.625C216.666 461.425 224.133 453.958 233.333 453.958C242.533 453.958 250 461.425 250 470.625C250 479.825 242.533 487.292 233.333 487.292ZM466.667 303.959C457.467 303.959 450 296.492 450 287.292C450 278.092 457.467 270.625 466.667 270.625C475.867 270.625 483.334 278.092 483.334 287.292C483.333 296.492 475.867 303.959 466.667 303.959ZM518.833 135.325C468.8 138.492 419.3 145.758 404.466 170.625H35C42.7328 132.625 76.4 103.958 116.667 103.958H550.234C540.333 113.959 529.833 124.459 518.833 135.325ZM633.333 120.625C624.133 120.625 616.666 113.158 616.666 103.958C616.666 94.7579 624.133 87.2907 633.333 87.2907C642.533 87.2907 650 94.7579 650 103.958C650 113.158 642.533 120.625 633.333 120.625ZM761.9 131.759C758.8 134.827 754.733 136.527 750.367 136.527V153.194L750.1 136.527C738 136.327 723.133 135.859 706.533 135.359C697.633 135.092 688.266 134.792 678.533 134.559C685.433 124.459 692.066 114.227 698.633 103.959H750.4C759.4 103.959 766.7 111.259 766.7 120.259C766.667 124.625 764.967 128.725 761.9 131.759Z" fill="#FF8A00"/>
</svg>
